<?xml version="1.0" standalone="no"?><!DOCTYPE svg PUBLIC "-//W3C//DTD SVG 1.1//EN" "http://www.w3.org/Graphics/SVG/1.1/DTD/svg11.dtd"><svg t="1690083789101" class="icon" viewBox="0 0 1024 1024" version="1.1" xmlns="http://www.w3.org/2000/svg" p-id="5803" id="mx_n_1690083789103" xmlns:xlink="http://www.w3.org/1999/xlink" width="14" height="14"><path d="M384 192H224a64 64 0 0 0-64 64v512a64 64 0 0 0 64 64h160a64 64 0 0 0 64-64V256a64 64 0 0 0-64-64z m416 0h-160a64 64 0 0 0-64 64v512a64 64 0 0 0 64 64h160a64 64 0 0 0 64-64V256a64 64 0 0 0-64-64z" fill="#707070" p-id="5804"></path></svg>